<svg xmlns="http://www.w3.org/2000/svg" width="180" height="180" fill="none"><path fill="#06361f" d="M0 0h180v180H0z"/><path d="M72.111 82.088c3.044 2.728 7.362 4.101 12.873 4.101a38.6 38.6 0 0 0 4.217-.242.7.7 0 0 0 .602-.698.64.64 0 0 0-.539-.686c-6.804-1.047-8.473-4.778-8.473-19.031V24.235c0-1.104-.471-2.12-1.256-2.713-.092-.077-9.199-7.646-14.623-11.261a.74.74 0 0 0-.984.185.64.64 0 0 0 .012.89c2.209 2.223 3.578 4.869 3.578 11.19v48.443c0 4.517 1.631 8.468 4.593 11.12zm43.773-15.372v-43.63c0-1.104-.472-2.12-1.257-2.715-.091-.077-9.2-7.645-14.623-11.261-.158-.098-.347-.132-.529-.098a.74.74 0 0 0-.456.285.64.64 0 0 0 .012.89c2.21 2.221 3.578 4.867 3.578 11.19v44.497 2.149c.047 11.748.07 17.644-13.752 25.019-13.484 7.194-21.284 14.167-21.284 28.52l.014 28.541c0 7.646 2.919 13.422 8.67 17.166 5.881 3.828 12.891 4.239 15.631 4.239s9.687-.411 15.474-4.241c5.647-3.735 8.51-9.511 8.51-17.164v-31.568c0-5.635-1.712-10.075-5.087-13.196-5.639-5.216-14.184-5.16-17.594-4.893a.74.74 0 0 0-.46.202c-.125.119-.205.277-.226.448a.78.78 0 0 0 .079.511c.084.157.218.28.381.349 4.656 1.959 9.632 6.689 9.632 14.081v36.564c0 10.691-3.919 16.821-10.749 16.821-7.502 0-10.991-5.345-10.991-16.821v-36.946c0-7.01 1.654-12.022 5.209-15.775 3.348-3.533 8.278-5.862 13.904-8.327 13.983-6.123 15.91-15.556 15.91-24.837z" fill="#fff"/></svg>